PathFileType	4	(X/Y/Z)	/Users/niels/Desktop/University/Third Semester/Perception and Action/Exam/Gymnastics Motion Tracking/Code for Gym Tracking/Analyzed Data/Webcam_Backflip/id1_4_baseline_Sports2D/id1_4_baseline_Sports2D_px_person00.trc
DataRate	CameraRate	NumFrames	NumMarkers	Units	OrigDataRate	OrigDataStartFrame	OrigNumFrames
29.87551867219917	29.87551867219917	11	22	m	29.87551867219917	180	241
Frame#	Time	Hip			RHip			RKnee			RAnkle			RBigToe			RSmallToe			RHeel			LHip			LKnee			LAnkle			LBigToe			LSmallToe			LHeel			Neck			Head			Nose			RShoulder			RElbow			RWrist			LShoulder			LElbow			LWrist		
		X1	Y1	Z1	X2	Y2	Z2	X3	Y3	Z3	X4	Y4	Z4	X5	Y5	Z5	X6	Y6	Z6	X7	Y7	Z7	X8	Y8	Z8	X9	Y9	Z9	X10	Y10	Z10	X11	Y11	Z11	X12	Y12	Z12	X13	Y13	Z13	X14	Y14	Z14	X15	Y15	Z15	X16	Y16	Z16	X17	Y17	Z17	X18	Y18	Z18	X19	Y19	Z19	X20	Y20	Z20	X21	Y21	Z21	X22	Y22	Z22
180	6.025	0.921352210556168	-0.596191597472447	0.0	0.9128493299745936	-0.5940808845183013	0.0	0.912345029523915	-0.700436763070367	0.0	0.899570340459526	-0.8116491293780868	0.0	0.9483120771268931	-0.8335169424719703	0.0	0.9392812672471351	-0.8363435679153834	0.0	0.8902218843953507	-0.8296455612451807	0.0	0.9325415639310569	-0.5944211666064124	0.0	0.9236668807193069	-0.7001972143851661	0.0	0.9051964262831181	-0.8076894749724148	0.0	0.9508285733154016	-0.8302366003934437	0.0	0.9465869149225201	-0.8267619983278829	0.0	0.8937417010007009	-0.8230976224957409	0.0	0.9358547428203075	-0.4382855692878025	0.0	0.9722190425610926	-0.3762269306645321	0.0	0.9699098413511745	-0.42108986395798265	0.0	0.9077926754936838	-0.45589166269163156	0.0	0.8851421648369344	-0.5266844490614566	0.0	0.9200167009256961	-0.5928800972011418	0.0	0.9414496619512531	-0.460668080573545	0.0	0.9317986316406152	-0.5340567131143632	0.0	0.9526683243679529	-0.593903194762519	0.0
181	6.058472222222222	0.9226342735860804	-0.5993235016574958	0.0	0.9135710721273018	-0.5973448190831846	0.0	0.9126844903799316	-0.7037145498248278	0.0	0.8996795721437739	-0.814883907553239	0.0	0.9476112655866579	-0.8370271076309308	0.0	0.9389988681628156	-0.8397554258816353	0.0	0.890639877744168	-0.8329414724731975	0.0	0.9338054955492194	-0.5978291781647347	0.0	0.9239407716491208	-0.7036522727408061	0.0	0.9052151542333068	-0.8112922117882566	0.0	0.9507941872271513	-0.8337752354035332	0.0	0.946760119214182	-0.8303852123378596	0.0	0.8938169838185425	-0.826751159268014	0.0	0.9361672325627194	-0.4415224947953615	0.0	0.9690241204896557	-0.3785488484278252	0.0	0.966881342092144	-0.4227080898539713	0.0	0.9067583918491748	-0.4601145877324038	0.0	0.8859710263880249	-0.5308416833679606	0.0	0.9190125653538027	-0.5970927178189939	0.0	0.9437802914718768	-0.4650323649895478	0.0	0.9360839456353821	-0.5391384503113227	0.0	0.9569095165134599	-0.5985976089221776	0.0
182	6.091944444444445	0.9240741847767611	-0.6018113245772089	0.0	0.9142565363072928	-0.5999327377842301	0.0	0.9128802598272633	-0.7059598425297684	0.0	0.8997900192580476	-0.8171642041301546	0.0	0.9463243803589301	-0.8396308550277409	0.0	0.938092910524906	-0.8423777889067534	0.0	0.8912913421824699	-0.8354077746760229	0.0	0.9351593980186634	-0.6005879916249897	0.0	0.9242703609305639	-0.7061396113552766	0.0	0.9052677278589891	-0.8138942739409202	0.0	0.9504574436740719	-0.8364847511739744	0.0	0.9467434003700845	-0.8331568559830024	0.0	0.893932910386392	-0.8294634392817276	0.0	0.9364209247807119	-0.4439751320141823	0.0	0.9661261605469891	-0.379977264569902	0.0	0.963947378370672	-0.4235093109096512	0.0	0.9055647219704027	-0.463481253032821	0.0	0.8864062016634219	-0.5341724147371512	0.0	0.917032283606954	-0.6006018537370308	0.0	0.9462291353148536	-0.4685433460594701	0.0	0.9398226441399586	-0.5429939630481893	0.0	0.9606177790223567	-0.6025884531067459	0.0
183	6.125416666666667	0.9255518915182546	-0.6033283108035994	0.0	0.9149076860453504	-0.6015314962803465	0.0	0.9130236897614306	-0.7069117853833908	0.0	0.8998810369652742	-0.8182371957069364	0.0	0.9445995690963899	-0.8410480788137211	0.0	0.9366361539403124	-0.8439268864421231	0.0	0.8920206778232799	-0.8367155975252131	0.0	0.9365807203713647	-0.6023305936064501	0.0	0.9247472019333776	-0.7073488674090481	0.0	0.905359905698618	-0.8152265115033773	0.0	0.9498535389222252	-0.838087925534537	0.0	0.9465494290364533	-0.8347581917174624	0.0	0.8940745897732376	-0.8309013577492701	0.0	0.9365999164153671	-0.4453300592703416	0.0	0.9636951489375626	-0.38023132632584794	0.0	0.9613892026324863	-0.4232874333227841	0.0	0.9042819587172016	-0.46564534894428133	0.0	0.8863337323024305	-0.5363507116315666	0.0	0.9141368440053685	-0.6031366702478775	0.0	0.9486022220345971	-0.4708408431627357	0.0	0.9429391569383304	-0.545305676502294	0.0	0.9636208250853624	-0.6055370969767212	0.0
184	6.158888888888889	0.9269128344960474	-0.6037372512380915	0.0	0.9155531329985627	-0.601998986443009	0.0	0.913301813889905	-0.7065697395644764	0.0	0.8999970841864524	-0.8180785987154079	0.0	0.9428768824912371	-0.8411702176819121	0.0	0.9350439176638317	-0.844230015161101	0.0	0.892728547465286	-0.8367807354656716	0.0	0.9379723612645846	-0.6029286712569354	0.0	0.9254415425065525	-0.7072355454175384	0.0	0.9055189466952357	-0.8152542934419689	0.0	0.9491361405476081	-0.8384531605502782	0.0	0.9462534392481441	-0.8350478054015529	0.0	0.8942747317460364	-0.8310039277992649	0.0	0.9367247427980276	-0.4453835463349572	0.0	0.9617012788579118	-0.3792729359711478	0.0	0.959261970955181	-0.421939355738834	0.0	0.9030233423949037	-0.4664252678358295	0.0	0.8857565464837766	-0.537176212394242	0.0	0.9105251758993042	-0.6045992627580062	0.0	0.9507427081312064	-0.47172643987263657	0.0	0.9453867395086867	-0.5459650543677447	0.0	0.9657870332120199	-0.6071605331811214	0.0
185	6.192361111111111	0.9280266826818262	-0.6031305640353375	0.0	0.9162096748935502	-0.6013923771053128	0.0	0.9138796131518786	-0.7051676017728516	0.0	0.9002098725042522	-0.8168405592790624	0.0	0.9417617093602234	-0.8400445103171416	0.0	0.9339446447281725	-0.8432599379612548	0.0	0.8933519895778537	-0.8357124219280023	0.0	0.9392277749574268	-0.6025201022638191	0.0	0.9263464593158033	-0.7060091446806287	0.0	0.9057615418211571	-0.8141070081394808	0.0	0.948528257623839	-0.8375687934198103	0.0	0.9459642138494238	-0.8340765956705567	0.0	0.8945468456697702	-0.8299146005348187	0.0	0.9368364112016725	-0.44409527375895425	0.0	0.9599794145132098	-0.3772832458974606	0.0	0.9574525055821784	-0.41953921854880716	0.0	0.9019062564167066	-0.4658163209781315	0.0	0.8847845419417785	-0.5365918793655019	0.0	0.9065026698401609	-0.6050103675372526	0.0	0.9525919851847426	-0.47120624341924544	0.0	0.9471834280360786	-0.5450589174562799	0.0	0.9670959423077499	-0.6072694699638765	0.0
186	6.225833333333333	0.9288678590488648	-0.6016610687495773	0.0	0.9168606390290093	-0.5998377590136004	0.0	0.9148214180170968	-0.7029987169252714	0.0	0.9005623787755211	-0.8147305495937057	0.0	0.941622341825391	-0.8378354159692305	0.0	0.9337426990462467	-0.8411386869294984	0.0	0.8938567491348375	-0.8336773700625296	0.0	0.9403178615819852	-0.6012737635404403	0.0	0.9273816908101242	-0.7039593430119145	0.0	0.906070335969159	-0.8119596204598952	0.0	0.9481924275334609	-0.8355439882390809	0.0	0.9457746055589031	-0.8320458964016121	0.0	0.8948419172854234	-0.8278392288630767	0.0	0.9369664687711846	-0.44160638643961037	0.0	0.9584314000887014	-0.37452193625336083	0.0	0.9558635463827484	-0.416314990422766	0.0	0.9009936554482451	-0.46395630889584477	0.0	0.8835715288779163	-0.5346777635733055	0.0	0.9023916822039352	-0.6043914968779994	0.0	0.9541567026182152	-0.4694354625094969	0.0	0.9484229443555745	-0.5428200076242924	0.0	0.9676730311089483	-0.6058354491768911	0.0
187	6.259305555555556	0.9295046253280385	-0.5994072878576318	0.0	0.917457936803049	-0.5974248049418018	0.0	0.9160893331585375	-0.7002721635772996	0.0	0.9010482533115597	-0.81194449655613	0.0	0.9423482167188376	-0.8348098735457442	0.0	0.9343491265102246	-0.8381042729899141	0.0	0.8942650264407093	-0.8308379369240866	0.0	0.9412990619918136	-0.5992290922236801	0.0	0.9284487937757301	-0.701323098542361	0.0	0.9064054505283164	-0.8090068734542537	0.0	0.9481244515059939	-0.8326319442049033	0.0	0.9457141468353727	-0.8292346558193967	0.0	0.89508253417388	-0.8249777753822587	0.0	0.9371126169828141	-0.4382028211253158	0.0	0.9570994689567256	-0.37122357818200385	0.0	0.9544934583762222	-0.4125599405738472	0.0	0.9002669813234476	-0.46108026236140337	0.0	0.882258200047162	-0.5316293446747011	0.0	0.8984173219962378	-0.6027100470899117	0.0	0.9554612081930722	-0.46664254904665936	0.0	0.9492679793427433	-0.539565533324706	0.0	0.96774079901303	-0.6030298712877812	0.0
188	6.292777777777778	0.9300275554613074	-0.5964563753352873	0.0	0.917970495330412	-0.5942813746431318	0.0	0.9175803575481705	-0.6971541846857225	0.0	0.9016376382385468	-0.8086972631260105	0.0	0.9435235537605696	-0.8313420302938468	0.0	0.9353611746737092	-0.8345020694341404	0.0	0.8946607762323924	-0.8274051531403099	0.0	0.9422351633694911	-0.5964222527853271	0.0	0.9294526751454724	-0.6983035282412782	0.0	0.906721107300401	-0.805523465105244	0.0	0.9481735692768892	-0.8292333766955047	0.0	0.9457214995629224	-0.8259729555790548	0.0	0.8952107109463404	-0.8215736791622342	0.0	0.9372504034559361	-0.43425192390036044	0.0	0.9560520655651635	-0.3676082307476601	0.0	0.9533833087611954	-0.40857241432075664	0.0	0.8996749301060829	-0.45749065930913896	0.0	0.8809423094328148	-0.5277382445261156	0.0	0.8947049489700111	-0.5999803243390824	0.0	0.9565339669508045	-0.46310935590844926	0.0	0.9499104688633025	-0.5356219402167687	0.0	0.9675567611504001	-0.5991923279083402	0.0
189	6.32625	0.9304993746538671	-0.5930247310643819	0.0	0.9184004866555603	-0.5906761061970958	0.0	0.9191486548263371	-0.6938561576522476	0.0	0.902304584760286	-0.8052450830986859	0.0	0.9447253290079617	-0.8278772513538935	0.0	0.9363797295059897	-0.8307898689363983	0.0	0.8951386584018822	-0.8236890143693013	0.0	0.9431333696840891	-0.5930392979725637	0.0	0.9302922184786161	-0.6951168910440044	0.0	0.9069796222204817	-0.8018710867062308	0.0	0.9481850895956987	-0.8258361385181627	0.0	0.9456907330274833	-0.8226449927709297	0.0	0.895215407121	-0.81796674725367	0.0	0.9373671676384822	-0.4301291696971356	0.0	0.9552951531067794	-0.3639011890628257	0.0	0.9525718316852723	-0.4045933261865408	0.0	0.8991869584864571	-0.45355485412773283	0.0	0.8796695201128037	-0.5233813943211669	0.0	0.8913602484573032	-0.5964141750541205	0.0	0.9574265595473695	-0.4591705277391943	0.0	0.9505038080427732	-0.5312965267623332	0.0	0.9673897397755247	-0.5947608426290251	0.0
190	6.3597222222222225	0.9309395154538981	-0.5894584792081472	0.0	0.9187443034887598	-0.5869915059517333	0.0	0.9206237020849242	-0.6906390446022335	0.0	0.9030155496557303	-0.8018637824598357	0.0	0.9456772282407813	-0.8248448643423126	0.0	0.9371670304560507	-0.8274619663270759	0.0	0.8957260722056457	-0.8200602124004663	0.0	0.9439602777011474	-0.5894104339386245	0.0	0.9308650075592539	-0.6919984563062326	0.0	0.9071587357879213	-0.7984165379429184	0.0	0.9481163928008433	-0.8228969635351848	0.0	0.9455687358831041	-0.8196485375399462	0.0	0.8951375832543791	-0.8145523745100004	0.0	0.9374789063242842	-0.4261709675633176	0.0	0.9547792796233621	-0.360313038333627	0.0	0.9520600308732046	-0.40076523152412297	0.0	0.8987830037952822	-0.4496872585331504	0.0	0.8784469618258134	-0.5190046521121209	0.0	0.8884993703406426	-0.5924561615538511	0.0	0.9582268222071986	-0.45520821551314883	0.0	0.951130900070586	-0.526938321742707	0.0	0.9674830387613879	-0.5902385567266022	0.0
